<svg id="visual" viewBox="0 0 900 600" width="900" height="600" xmlns="http://www.w3.org/2000/svg" xmlns:xlink="http://www.w3.org/1999/xlink" version="1.1"><g transform="translate(448.9609701395344 268.1885086057513)"><path d="M138.2 -175.7C162.8 -144 155.3 -85 168.4 -27.2C181.6 30.6 215.5 87.3 207.1 136.3C198.8 185.3 148.1 226.5 89.5 249.5C30.8 272.5 -35.9 277.2 -90.8 254.9C-145.8 232.6 -188.9 183.3 -201.9 131C-214.8 78.7 -197.5 23.5 -177 -20.6C-156.6 -64.6 -132.9 -97.4 -102.9 -128.1C-72.8 -158.8 -36.4 -187.4 10.2 -199.5C56.8 -211.7 113.6 -207.3 138.2 -175.7" fill="#ffd5d5"></path></g></svg>